<?xml version="1.0" encoding="UTF-8"?>
<svg id="Layer_2" data-name="Layer 2" xmlns="http://www.w3.org/2000/svg" viewBox="0 0 68.02 103.07">
  <defs>
    <style>
      .cls-1 {
        fill: #848484;
      }

      .cls-1, .cls-2 {
        stroke-width: 0px;
      }

      .cls-2 {
        fill: #e8e8e8;
      }
    </style>
  </defs>
  <g id="Layer_1-2" data-name="Layer 1">
    <path class="cls-2" d="M68.02,32.48h-8.77c-.52-.51-.9-.9-.9-.9l-2.58-2.57-16.35-16.35c-7.34-7.34-19.24-7.34-26.58,0-4.19,4.18-5.99,9.84-5.4,15.29.44,4.13,2.24,8.14,5.4,11.3l19.08,19.08s.42.42.95.95v8.77l-3.55-3.55-9.16-9.16-12.66-12.66C3.11,38.31.7,32.72.24,27c-.56-7.05,1.86-14.29,7.25-19.68,9.76-9.76,25.59-9.76,35.35,0l21.75,21.74,3.42,3.42Z"/>
    <path class="cls-2" d="M67.77,76.06c-.45,5.72-2.87,11.31-7.25,15.68-9.76,9.77-25.59,9.77-35.35,0L3.99,70.58l-.58-.58L0,66.58h8.76c.52.51.91.9.91.9l2.57,2.57,16.35,16.36c7.34,7.34,19.24,7.34,26.59,0,3.16-3.16,4.96-7.17,5.39-11.3.59-5.45-1.21-11.11-5.39-15.29l-16.41-16.41-2.68-2.67s-.42-.43-.95-.96v-8.77l3.55,3.56s4.35,4.34,9.16,9.16c5.97,5.97,12.66,12.66,12.66,12.66,5.39,5.39,7.81,12.63,7.25,19.67Z"/>
    <path class="cls-1" d="M32.86,68.05v4l-3.55-3.55-9.16-9.16-12.66-12.66C2.11,41.29-.32,34.05.24,27c.45,5.72,2.87,11.31,7.25,15.68l12.66,12.66,9.16,9.16,3.55,3.55Z"/>
    <path class="cls-1" d="M68.02,36.48h-8.77c-.52-.51-.9-.9-.9-.9l-2.58-2.57-16.35-16.35c-7.34-7.34-19.24-7.34-26.58,0-3.16,3.16-4.96,7.17-5.4,11.29-.59-5.45,1.21-11.11,5.4-15.29,7.34-7.34,19.24-7.34,26.58,0l16.35,16.35,2.58,2.57s.38.39.9.9h8.77v4Z"/>
    <path class="cls-1" d="M60.58,75.11c-.43-4.12-2.23-8.13-5.39-11.29l-16.41-16.41-2.68-2.67s-.42-.43-.95-.96v-4c.53.53.95.96.95.96l2.68,2.67,16.41,16.41c4.18,4.18,5.98,9.84,5.39,15.29Z"/>
    <path class="cls-1" d="M60.52,95.74c-9.76,9.77-25.59,9.77-35.35,0L3.42,74,0,70.58s0-2.53,0-3.99l25.17,25.15c9.76,9.77,25.59,9.77,35.35,0,4.38-4.37,6.8-9.96,7.25-15.68.56,7.05-1.85,14.29-7.25,19.68Z"/>
  </g>
</svg>